<svg width="24" height="24" viewBox="0 0 24 24" fill="none" xmlns="http://www.w3.org/2000/svg">
<path d="M4.5 6.75C4.5 5.75544 4.89509 4.80161 5.59835 4.09835C6.30161 3.39509 7.25544 3 8.25 3H15.75C16.7446 3 17.6984 3.39509 18.4016 4.09835C19.1049 4.80161 19.5 5.75544 19.5 6.75V9.075C20.347 9.2479 21.1083 9.70814 21.655 10.3778C22.2017 11.0475 22.5002 11.8855 22.5 12.75V20.25C22.5 20.4489 22.421 20.6397 22.2803 20.7803C22.1397 20.921 21.9489 21 21.75 21C21.5511 21 21.3603 20.921 21.2197 20.7803C21.079 20.6397 21 20.4489 21 20.25V16.5H3V20.25C3 20.4489 2.92098 20.6397 2.78033 20.7803C2.63968 20.921 2.44891 21 2.25 21C2.05109 21 1.86032 20.921 1.71967 20.7803C1.57902 20.6397 1.5 20.4489 1.5 20.25V12.75C1.49982 11.8855 1.79834 11.0475 2.34502 10.3778C2.8917 9.70814 3.65298 9.2479 4.5 9.075V6.75ZM3 15H21V12.75C21 12.1533 20.7629 11.581 20.341 11.159C19.919 10.7371 19.3467 10.5 18.75 10.5H5.25C4.65326 10.5 4.08097 10.7371 3.65901 11.159C3.23705 11.581 3 12.1533 3 12.75V15ZM18 6.75C18 6.15326 17.7629 5.58097 17.341 5.15901C16.919 4.73705 16.3467 4.5 15.75 4.5H8.25C7.65326 4.5 7.08097 4.73705 6.65901 5.15901C6.23705 5.58097 6 6.15326 6 6.75V9H7.5V8.25C7.5 8.05109 7.57902 7.86032 7.71967 7.71967C7.86032 7.57902 8.05109 7.5 8.25 7.5H10.5C10.6989 7.5 10.8897 7.57902 11.0303 7.71967C11.171 7.86032 11.25 8.05109 11.25 8.25V9H12.75V8.25C12.75 8.05109 12.829 7.86032 12.9697 7.71967C13.1103 7.57902 13.3011 7.5 13.5 7.5H15.75C15.9489 7.5 16.1397 7.57902 16.2803 7.71967C16.421 7.86032 16.5 8.05109 16.5 8.25V9H18V6.75Z" fill="#1052BA"/>
</svg>
