<svg width="44" height="44" viewBox="0 0 44 44" fill="none" xmlns="http://www.w3.org/2000/svg">
<circle opacity="0.8" cx="22" cy="22" r="21.5" fill="#1052BA" stroke="white"/>
<path d="M22.5175 14.5464C19.6213 14.5464 17.2675 16.9001 17.2675 19.7964V22.3251C17.2675 22.8589 17.04 23.6726 16.7688 24.1276L15.7625 25.7989C15.1413 26.8314 15.57 27.9776 16.7075 28.3626C20.4788 29.6226 24.5475 29.6226 28.3188 28.3626C29.3775 28.0126 29.8413 26.7614 29.2638 25.7989L28.2575 24.1276C27.995 23.6726 27.7675 22.8589 27.7675 22.3251V19.7964C27.7675 16.9089 25.405 14.5464 22.5175 14.5464Z" fill="white" stroke="white" stroke-width="1.5" stroke-miterlimit="10" stroke-linecap="round"/>
<path d="M24.1363 14.7998C23.8651 14.721 23.5851 14.6598 23.2963 14.6248C22.4563 14.5198 21.6513 14.581 20.8988 14.7998C21.1526 14.1523 21.7826 13.6973 22.5176 13.6973C23.2526 13.6973 23.8826 14.1523 24.1363 14.7998Z" stroke="white" stroke-width="1.5" stroke-miterlimit="10" stroke-linecap="round" stroke-linejoin="round"/>
<path d="M25.1425 28.6777C25.1425 30.1215 23.9612 31.3027 22.5175 31.3027C21.8 31.3027 21.135 31.0052 20.6625 30.5327C20.19 30.0602 19.8925 29.3952 19.8925 28.6777" stroke="white" stroke-width="1.5" stroke-miterlimit="10"/>
</svg>
