<svg width="25" height="24" viewBox="0 0 25 24" fill="none" xmlns="http://www.w3.org/2000/svg">
<path opacity="0.5" d="M18.8334 8C18.8334 5.17157 18.8334 3.75736 17.9547 2.87868C17.076 2 15.6618 2 12.8334 2C10.0049 2 8.59073 2 7.71205 2.87868C6.83337 3.75736 6.83337 5.17157 6.83337 8V16C6.83337 18.8284 6.83337 20.2426 7.71205 21.1213C8.59073 22 10.0049 22 12.8334 22C15.6618 22 17.076 22 17.9547 21.1213C18.8334 20.2426 18.8334 18.8284 18.8334 16V12" stroke="#333333" stroke-width="1.5" stroke-linecap="round"/>
<path opacity="0.5" d="M18.8334 19.5C20.2335 19.5 20.9336 19.5 21.4684 19.2275C21.9388 18.9878 22.3212 18.6054 22.5609 18.135C22.8334 17.6002 22.8334 16.9001 22.8334 15.5V8.5C22.8334 7.09987 22.8334 6.3998 22.5609 5.86502C22.3212 5.39462 21.9388 5.01217 21.4684 4.77248C20.9336 4.5 20.2335 4.5 18.8334 4.5" stroke="#333333" stroke-width="1.5"/>
<path opacity="0.5" d="M6.83337 19.5C5.43324 19.5 4.73318 19.5 4.1984 19.2275C3.72799 18.9878 3.34554 18.6054 3.10586 18.135C2.83337 17.6002 2.83337 16.9001 2.83337 15.5V8.5C2.83337 7.09987 2.83337 6.3998 3.10586 5.86502C3.34554 5.39462 3.72799 5.01217 4.1984 4.77248C4.73318 4.5 5.43324 4.5 6.83337 4.5" stroke="#333333" stroke-width="1.5"/>
</svg>
