<svg width="25" height="24" viewBox="0 0 25 24" fill="none" xmlns="http://www.w3.org/2000/svg">
<g clip-path="url(#clip0_86_1935)">
<path d="M21.5 9V7C21.5 5.35 20.15 4 18.5 4H14.5C13.73 4 13.03 4.3 12.5 4.78C11.97 4.3 11.27 4 10.5 4H6.5C4.85 4 3.5 5.35 3.5 7V9C1.85 9 0.5 10.35 0.5 12V17C0.5 18.65 1.85 20 3.5 20V22H5.5V20H19.5V22H21.5V20C23.15 20 24.5 18.65 24.5 17V12C24.5 10.35 23.15 9 21.5 9ZM14.5 6H18.5C19.05 6 19.5 6.45 19.5 7V9.78C18.89 10.33 18.5 11.12 18.5 12V14H13.5V7C13.5 6.45 13.95 6 14.5 6ZM5.5 7C5.5 6.45 5.95 6 6.5 6H10.5C11.05 6 11.5 6.45 11.5 7V14H6.5V12C6.5 11.12 6.11 10.33 5.5 9.78V7ZM22.5 17C22.5 17.55 22.05 18 21.5 18H3.5C2.95 18 2.5 17.55 2.5 17V12C2.5 11.45 2.95 11 3.5 11C4.05 11 4.5 11.45 4.5 12V16H20.5V12C20.5 11.45 20.95 11 21.5 11C22.05 11 22.5 11.45 22.5 12V17Z" fill="#1052BA"/>
</g>
<defs>
<clipPath id="clip0_86_1935">
<rect width="24" height="24" fill="white" transform="translate(0.5)"/>
</clipPath>
</defs>
</svg>
