<svg width="19" height="19" viewBox="0 0 19 19" fill="none" xmlns="http://www.w3.org/2000/svg">
<path d="M2.68936 5.70993C2.52619 5.32921 2.08528 5.15285 1.70456 5.31601C1.32384 5.47918 1.14747 5.92009 1.31064 6.30081L2.68936 5.70993ZM12.1904 10.7519L11.9157 10.054V10.054L12.1904 10.7519ZM7.43825 11.1609C7.66415 10.8137 7.56584 10.3492 7.21865 10.1233C6.87146 9.89735 6.40688 9.99567 6.18097 10.3429L7.43825 11.1609ZM5.12136 11.9713C4.89545 12.3185 4.99377 12.7831 5.34096 13.009C5.68815 13.2349 6.15273 13.1366 6.37864 12.7894L5.12136 11.9713ZM17.6894 6.30081C17.8525 5.92009 17.6762 5.47918 17.2954 5.31601C16.9147 5.15285 16.4738 5.32921 16.3106 5.70993L17.6894 6.30081ZM14.75 9.102L14.2367 8.55515V8.55515L14.75 9.102ZM15.3447 10.7573C15.6376 11.0502 16.1124 11.0502 16.4053 10.7573C16.6982 10.4644 16.6982 9.98956 16.4053 9.69667L15.3447 10.7573ZM8.75 13.1304C8.75 13.5446 9.08579 13.8804 9.5 13.8804C9.91421 13.8804 10.25 13.5446 10.25 13.1304H8.75ZM12.6214 12.7894C12.8473 13.1366 13.3119 13.2349 13.659 13.009C14.0062 12.7831 14.1045 12.3185 13.8786 11.9713L12.6214 12.7894ZM4.78033 9.63233C5.07322 9.33944 5.07322 8.86456 4.78033 8.57167C4.48744 8.27878 4.01256 8.27878 3.71967 8.57167L4.78033 9.63233ZM2.59467 9.69667C2.30178 9.98956 2.30178 10.4644 2.59467 10.7573C2.88756 11.0502 3.36244 11.0502 3.65533 10.7573L2.59467 9.69667ZM9.5 10.5054C7.15111 10.5054 5.46133 9.33747 4.33084 8.12003C3.76583 7.51155 3.35106 6.90071 3.07806 6.44207C2.94199 6.21346 2.8423 6.02464 2.77775 5.89555C2.74551 5.83106 2.72212 5.78165 2.70742 5.74983C2.70008 5.73393 2.69491 5.72244 2.69191 5.71568C2.69041 5.7123 2.68944 5.71011 2.68902 5.70913C2.68881 5.70865 2.68873 5.70847 2.68879 5.7086C2.68881 5.70867 2.68888 5.70881 2.68897 5.70903C2.68902 5.70914 2.68912 5.70937 2.68914 5.70942C2.68925 5.70967 2.68936 5.70993 2 6.00537C1.31064 6.30081 1.31077 6.30112 1.31091 6.30144C1.31097 6.30158 1.31112 6.30192 1.31123 6.30219C1.31147 6.30273 1.31174 6.30335 1.31204 6.30405C1.31265 6.30546 1.31339 6.30718 1.31428 6.30922C1.31606 6.31329 1.31841 6.31863 1.32132 6.32518C1.32715 6.33829 1.33526 6.35628 1.34568 6.37883C1.3665 6.42392 1.39658 6.4873 1.43611 6.56637C1.51512 6.72438 1.63223 6.94572 1.78912 7.2093C2.10206 7.73503 2.57792 8.43669 3.23165 9.14071C4.53867 10.5483 6.59889 12.0054 9.5 12.0054V10.5054ZM11.9157 10.054C11.2088 10.3323 10.4067 10.5054 9.5 10.5054V12.0054C10.6032 12.0054 11.5912 11.7937 12.4651 11.4498L11.9157 10.054ZM6.18097 10.3429L5.12136 11.9713L6.37864 12.7894L7.43825 11.1609L6.18097 10.3429ZM17 6.00537C16.3106 5.70993 16.3107 5.70978 16.3108 5.70963C16.3108 5.70959 16.3108 5.70945 16.3109 5.70937C16.311 5.70921 16.311 5.70907 16.3111 5.70895C16.3112 5.70873 16.3112 5.7086 16.3112 5.70857C16.3113 5.7085 16.3111 5.70883 16.3108 5.70954C16.3102 5.71096 16.3089 5.71391 16.3069 5.71833C16.303 5.72717 16.2963 5.7419 16.2869 5.76208C16.2681 5.80244 16.2383 5.86449 16.1974 5.94469C16.1155 6.10525 15.9895 6.33755 15.8174 6.61362C15.4721 7.1679 14.9489 7.88666 14.2367 8.55515L15.2633 9.64885C16.095 8.86817 16.6969 8.03862 17.0905 7.40688C17.288 7.08993 17.4349 6.81979 17.5337 6.62617C17.5831 6.52928 17.6206 6.4513 17.6464 6.3959C17.6593 6.3682 17.6693 6.34612 17.6765 6.33013C17.68 6.32213 17.6829 6.31565 17.685 6.31074C17.6861 6.30829 17.687 6.30623 17.6877 6.30458C17.6881 6.30375 17.6884 6.30302 17.6887 6.30239C17.6888 6.30208 17.6889 6.30179 17.6891 6.30152C17.6891 6.30139 17.6892 6.30121 17.6892 6.30115C17.6893 6.30098 17.6894 6.30081 17 6.00537ZM14.2367 8.55515C13.6059 9.14721 12.8352 9.69209 11.9157 10.054L12.4651 11.4498C13.5968 11.0043 14.5248 10.342 15.2633 9.64885L14.2367 8.55515ZM14.2197 9.63233L15.3447 10.7573L16.4053 9.69667L15.2803 8.57167L14.2197 9.63233ZM8.75 11.2554V13.1304H10.25V11.2554H8.75ZM11.5618 11.1609L12.6214 12.7894L13.8786 11.9713L12.819 10.3429L11.5618 11.1609ZM3.71967 8.57167L2.59467 9.69667L3.65533 10.7573L4.78033 9.63233L3.71967 8.57167Z" fill="#333333"/>
</svg>
