<svg width="25" height="24" viewBox="0 0 25 24" fill="none" xmlns="http://www.w3.org/2000/svg">
<path opacity="0.5" d="M12.1666 5.50088L11.6263 6.02098C11.6296 6.02445 11.633 6.02789 11.6364 6.0313L12.1666 5.50088ZM9.12836 18.9111L8.66404 19.5001L9.12836 18.9111ZM15.2049 18.9111L14.7406 18.3221L15.2049 18.9111ZM7.16723 16.4211C6.84741 16.1579 6.37476 16.2038 6.11154 16.5236C5.84832 16.8435 5.89421 17.3161 6.21403 17.5793L7.16723 16.4211ZM2.50861 13.4117C2.70737 13.7751 3.1631 13.9086 3.52651 13.7098C3.88992 13.5111 4.0234 13.0554 3.82464 12.6919L2.50861 13.4117ZM13.6364 8.03058C13.9293 8.32342 14.4042 8.32333 14.6971 8.03039C14.9899 7.73744 14.9898 7.26257 14.6969 6.96973L13.6364 8.03058ZM2.91663 9.13734C2.91663 6.98647 4.13199 5.18277 5.79098 4.42444C7.40269 3.68772 9.56829 3.88282 11.6263 6.02098L12.707 4.98078C10.2651 2.44377 7.43072 2.02563 5.16739 3.0602C2.95134 4.07317 1.41663 6.42527 1.41663 9.13734H2.91663ZM8.66404 19.5001C9.17628 19.9039 9.72617 20.3345 10.2834 20.6602C10.8405 20.9857 11.4762 21.2502 12.1666 21.2502V19.7502C11.857 19.7502 11.4928 19.6295 11.0402 19.3651C10.5879 19.1008 10.1187 18.7368 9.59267 18.3221L8.66404 19.5001ZM15.6692 19.5001C17.0959 18.3755 18.9194 17.0868 20.3499 15.476C21.8061 13.8363 22.9166 11.8029 22.9166 9.13734H21.4166C21.4166 11.3347 20.5174 13.0285 19.2283 14.48C17.9136 15.9605 16.2562 17.1273 14.7406 18.3221L15.6692 19.5001ZM22.9166 9.13734C22.9166 6.42527 21.3819 4.07317 19.1659 3.0602C16.9025 2.02563 14.0681 2.44377 11.6263 4.98078L12.707 6.02098C14.765 3.88282 16.9306 3.68772 18.5423 4.42444C20.2013 5.18277 21.4166 6.98647 21.4166 9.13734H22.9166ZM14.7406 18.3221C14.2145 18.7368 13.7453 19.1008 13.293 19.3651C12.8405 19.6295 12.4762 19.7502 12.1666 19.7502V21.2502C12.857 21.2502 13.4928 20.9857 14.0498 20.6602C14.6071 20.3345 15.157 19.9039 15.6692 19.5001L14.7406 18.3221ZM9.59267 18.3221C8.79676 17.6947 7.98792 17.0966 7.16723 16.4211L6.21403 17.5793C7.0443 18.2627 7.92134 18.9146 8.66404 19.5001L9.59267 18.3221ZM3.82464 12.6919C3.26343 11.6658 2.91663 10.5035 2.91663 9.13734H1.41663C1.41663 10.7749 1.83657 12.183 2.50861 13.4117L3.82464 12.6919ZM11.6364 6.0313L13.6364 8.03058L14.6969 6.96973L12.6969 4.97045L11.6364 6.0313Z" fill="#333333"/>
</svg>
