<svg width="20" height="19" viewBox="0 0 20 19" fill="none" xmlns="http://www.w3.org/2000/svg">
<path d="M17.9167 17.4165L2.08337 17.4165" stroke="#1C274C" stroke-width="1.5" stroke-linecap="round"/>
<path d="M2.875 17.4164V8.98296C2.875 8.30457 3.1651 7.65856 3.67214 7.20787M17.125 17.4164V12.6664M6.24232 4.92326L8.42214 2.98565C9.32199 2.18577 10.678 2.18577 11.5779 2.98565L16.3279 7.20787C16.8349 7.65856 17.125 8.30457 17.125 8.98296V9.49972" stroke="#1C274C" stroke-width="1.5" stroke-linecap="round"/>
<path d="M7.625 14.646H12.375" stroke="#1C274C" stroke-width="1.5" stroke-linecap="round"/>
<path d="M5.25 17.4167V15.0417M14.75 17.4167V12.6667C14.75 11.1739 14.75 10.4275 14.2863 9.96375C13.8225 9.5 13.0761 9.5 11.5833 9.5H8.41667C6.92389 9.5 6.17749 9.5 5.71375 9.96375C5.34044 10.3371 5.26764 10.8935 5.25344 11.875" stroke="#1C274C" stroke-width="1.5" stroke-linecap="round"/>
<path d="M8.41663 7.125H8.81246M11.5833 7.125H10.3958" stroke="#1C274C" stroke-width="1.5" stroke-linecap="round"/>
<path d="M7.625 12.271H8.8125M12.375 12.271H10.3958" stroke="#1C274C" stroke-width="1.5" stroke-linecap="round"/>
</svg>
