<svg width="11" height="24" viewBox="0 0 11 24" fill="none" xmlns="http://www.w3.org/2000/svg">
<path d="M6.175 13.5C5.89167 13.5 5.69167 13.4207 5.575 13.262C5.45833 13.1033 5.41667 12.891 5.45 12.625C5.46667 12.475 5.47933 12.354 5.488 12.262C5.49667 12.17 5.50067 12.0827 5.5 12C5.5 11.5 5.33333 10.8667 5 10.1C4.66667 9.33333 4.5 8.75833 4.5 8.375C4.5 8.225 4.50834 8.07067 4.525 7.912C4.54167 7.75333 4.59167 7.59933 4.675 7.45C4.74167 7.31667 4.83333 7.20833 4.95 7.125C5.06667 7.04167 5.19167 7 5.325 7C5.59167 7 5.796 7.079 5.938 7.237C6.08 7.395 6.11734 7.60767 6.05 7.875C6.01667 8.025 6 8.19167 6 8.375C6 8.75833 6.16667 9.33333 6.5 10.1C6.83333 10.8667 7 11.5 7 12C7 12.25 6.98333 12.4583 6.95 12.625C6.91667 12.7917 6.875 12.9333 6.825 13.05C6.75833 13.1833 6.66667 13.2917 6.55 13.375C6.43334 13.4583 6.30834 13.5 6.175 13.5ZM12.675 13.5C12.3917 13.5 12.1917 13.4207 12.075 13.262C11.9583 13.1033 11.9167 12.891 11.95 12.625C11.9667 12.475 11.9793 12.354 11.988 12.262C11.9967 12.17 12.0007 12.0827 12 12C12 11.5 11.8333 10.8667 11.5 10.1C11.1667 9.33333 11 8.75833 11 8.375C11 8.225 11.0083 8.07067 11.025 7.912C11.0417 7.75333 11.0917 7.59933 11.175 7.45C11.2417 7.31667 11.3333 7.20833 11.45 7.125C11.5667 7.04167 11.6917 7 11.825 7C12.0917 7 12.296 7.079 12.438 7.237C12.58 7.395 12.6173 7.60767 12.55 7.875C12.5167 8.025 12.5 8.19167 12.5 8.375C12.5 8.75833 12.6667 9.33333 13 10.1C13.3333 10.8667 13.5 11.5 13.5 12C13.5 12.25 13.4833 12.4583 13.45 12.625C13.4167 12.7917 13.375 12.9333 13.325 13.05C13.2583 13.1833 13.1667 13.2917 13.05 13.375C12.9333 13.4583 12.8083 13.5 12.675 13.5ZM9.425 13.5C9.14167 13.5 8.94167 13.4207 8.825 13.262C8.70833 13.1033 8.66667 12.891 8.7 12.625C8.71667 12.475 8.72934 12.354 8.738 12.262C8.74667 12.17 8.75067 12.0827 8.75 12C8.75 11.5 8.58334 10.8667 8.25 10.1C7.91667 9.33333 7.75 8.75833 7.75 8.375C7.75 8.225 7.75834 8.07067 7.775 7.912C7.79167 7.75333 7.84167 7.59933 7.925 7.45C7.99167 7.31667 8.08333 7.20833 8.2 7.125C8.31667 7.04167 8.44167 7 8.575 7C8.84167 7 9.046 7.079 9.188 7.237C9.33 7.395 9.36734 7.60767 9.3 7.875C9.26667 8.025 9.25 8.19167 9.25 8.375C9.25 8.75833 9.41667 9.33333 9.75 10.1C10.0833 10.8667 10.25 11.5 10.25 12C10.25 12.25 10.2333 12.4583 10.2 12.625C10.1667 12.7917 10.125 12.9333 10.075 13.05C10.0083 13.1833 9.91667 13.2917 9.8 13.375C9.68334 13.4583 9.55834 13.5 9.425 13.5ZM9.75 22C8.06667 22 6.58733 21.4373 5.312 20.312C4.03667 19.1867 3.266 17.791 3 16.125C2.96667 15.825 3.05 15.5623 3.25 15.337C3.45 15.1117 3.7 14.9993 4 15H14.525L15.625 4.65C15.7083 3.9 16.0293 3.27067 16.588 2.762C17.1467 2.25333 17.8173 1.99933 18.6 2C19.4333 2 20.1417 2.29167 20.725 2.875C21.3083 3.45833 21.6 4.16667 21.6 5L21.55 5.475C21.5167 5.75833 21.3957 5.98767 21.187 6.163C20.9783 6.33834 20.7327 6.409 20.45 6.375C20.1833 6.34167 19.9627 6.22067 19.788 6.012C19.6133 5.80333 19.5423 5.566 19.575 5.3L19.6 5C19.6 4.71667 19.504 4.47933 19.312 4.288C19.12 4.09667 18.8827 4.00067 18.6 4C18.3333 4 18.1083 4.08767 17.925 4.263C17.7417 4.43833 17.6333 4.65067 17.6 4.9L16.45 15.775C16.2667 17.5417 15.5417 19.021 14.275 20.213C13.0083 21.405 11.5 22.0007 9.75 22ZM9.75 20C10.7333 20 11.6167 19.725 12.4 19.175C13.1833 18.625 13.75 17.9 14.1 17H5.325C5.70833 17.9 6.29567 18.625 7.087 19.175C7.87833 19.725 8.766 20 9.75 20Z" fill="#1052BA"/>
</svg>
