<svg width="36" height="37" viewBox="0 0 36 37" fill="none" xmlns="http://www.w3.org/2000/svg">
<g filter="url(#filter0_d_60_6474)">
<ellipse cx="16" cy="15.5201" rx="14" ry="14.0201" fill="#FF6F6F"/>
</g>
<rect x="7.83337" y="7.3418" width="17.5" height="17.5251" rx="5" fill="#FF6F6F"/>
<path d="M16.5834 11.3582L16.0427 11.8779C16.046 11.8814 16.0494 11.8848 16.0528 11.8882L16.5834 11.3582ZM14.368 21.1505L13.9033 21.7392L14.368 21.1505ZM18.7988 21.1505L18.3341 20.5618L18.7988 21.1505ZM13.0675 19.1764C12.7479 18.9129 12.2752 18.9585 12.0117 19.2781C11.7483 19.5978 11.7939 20.0705 12.1135 20.3339L13.0675 19.1764ZM9.36268 17.2315C9.56122 17.595 10.0169 17.7287 10.3804 17.5302C10.7439 17.3317 10.8777 16.876 10.6791 16.5125L9.36268 17.2315ZM17.5111 13.3481C17.8039 13.6412 18.2787 13.6414 18.5718 13.3487C18.8648 13.0559 18.8651 12.5811 18.5724 12.288L17.5111 13.3481ZM10.0417 14.0136C10.0417 12.5181 10.8853 11.2751 12.0193 10.756C13.1058 10.2587 14.5939 10.3706 16.0427 11.8779L17.1242 10.8385C15.2917 8.93194 13.1341 8.59604 11.395 9.39211C9.70349 10.1664 8.54175 11.9581 8.54175 14.0136H10.0417ZM13.9033 21.7392C14.2749 22.0325 14.6868 22.356 15.1074 22.6021C15.5277 22.8481 16.0282 23.0609 16.5834 23.0609V21.5609C16.4095 21.5609 16.1808 21.4923 15.865 21.3075C15.5494 21.1228 15.2182 20.8661 14.8327 20.5618L13.9033 21.7392ZM19.2635 21.7392C20.2918 20.9274 21.6439 19.97 22.7026 18.7761C23.787 17.5533 24.6251 16.0228 24.6251 14.0136H23.1251C23.1251 15.5553 22.4977 16.7464 21.5803 17.7809C20.6373 18.8443 19.4513 19.6799 18.3341 20.5618L19.2635 21.7392ZM24.6251 14.0136C24.6251 11.9581 23.4633 10.1664 21.7718 9.39211C20.0328 8.59604 17.8751 8.93194 16.0427 10.8385L17.1242 11.8779C18.5729 10.3706 20.061 10.2587 21.1475 10.756C22.2816 11.2751 23.1251 12.5181 23.1251 14.0136H24.6251ZM18.3341 20.5618C17.9487 20.8661 17.6174 21.1228 17.3019 21.3075C16.986 21.4923 16.7573 21.5609 16.5834 21.5609V23.0609C17.1387 23.0609 17.6391 22.8481 18.0595 22.6021C18.48 22.356 18.8919 22.0325 19.2635 21.7392L18.3341 20.5618ZM14.8327 20.5618C14.2452 20.098 13.6646 19.6685 13.0675 19.1764L12.1135 20.3339C12.7202 20.8339 13.3689 21.3173 13.9033 21.7392L14.8327 20.5618ZM10.6791 16.5125C10.2848 15.7905 10.0417 14.9748 10.0417 14.0136H8.54175C8.54175 15.2457 8.85776 16.3069 9.36268 17.2315L10.6791 16.5125ZM16.0528 11.8882L17.5111 13.3481L18.5724 12.288L17.114 10.8281L16.0528 11.8882Z" fill="#FEFEFE"/>
<defs>
<filter id="filter0_d_60_6474" x="0" y="0.5" width="36" height="36.04" filterUnits="userSpaceOnUse" color-interpolation-filters="sRGB">
<feFlood flood-opacity="0" result="BackgroundImageFix"/>
<feColorMatrix in="SourceAlpha" type="matrix" values="0 0 0 0 0 0 0 0 0 0 0 0 0 0 0 0 0 0 127 0" result="hardAlpha"/>
<feOffset dx="2" dy="3"/>
<feGaussianBlur stdDeviation="2"/>
<feComposite in2="hardAlpha" operator="out"/>
<feColorMatrix type="matrix" values="0 0 0 0 0 0 0 0 0 0 0 0 0 0 0 0 0 0 0.25 0"/>
<feBlend mode="normal" in2="BackgroundImageFix" result="effect1_dropShadow_60_6474"/>
<feBlend mode="normal" in="SourceGraphic" in2="effect1_dropShadow_60_6474" result="shape"/>
</filter>
</defs>
</svg>
