<svg width="14" height="16" viewBox="0 0 14 16" fill="none" xmlns="http://www.w3.org/2000/svg">
<path d="M11.596 11.5961L8.06096 15.1321C7.92166 15.2715 7.75626 15.3821 7.5742 15.4575C7.39215 15.5329 7.19702 15.5718 6.99996 15.5718C6.80289 15.5718 6.60776 15.5329 6.42571 15.4575C6.24366 15.3821 6.07826 15.2715 5.93896 15.1321L2.40396 11.5961C1.80034 10.9925 1.3215 10.276 0.994802 9.48739C0.6681 8.69878 0.499924 7.85355 0.499878 6.99994C0.499832 6.14634 0.667915 5.30109 0.994532 4.51244C1.32115 3.7238 1.7999 3.00721 2.40346 2.40359C3.00701 1.79997 3.72355 1.32114 4.51216 0.994436C5.30077 0.667734 6.146 0.499558 6.9996 0.499512C7.85321 0.499465 8.69846 0.667549 9.4871 0.994166C10.2757 1.32078 10.9923 1.79954 11.596 2.40309C12.1996 3.00668 12.6785 3.72328 13.0052 4.51195C13.3319 5.30062 13.5001 6.14593 13.5001 6.99959C13.5001 7.85326 13.3319 8.69856 13.0052 9.48723C12.6785 10.2759 12.1996 10.9925 11.596 11.5961ZM10.536 3.46409C9.59815 2.52629 8.32621 1.99843 6.99996 1.99843C5.6737 1.99843 4.40176 2.52529 3.46396 3.46309C2.52615 4.4009 1.9993 5.67283 1.9993 6.99909C1.9993 8.32535 2.52615 9.59729 3.46396 10.5351L6.99996 14.0701L10.536 10.5361C11.0004 10.0718 11.3688 9.52053 11.6202 8.91381C11.8715 8.3071 12.0009 7.65681 12.0009 7.00009C12.0009 6.34337 11.8715 5.69308 11.6202 5.08637C11.3688 4.47966 11.0004 3.9284 10.536 3.46409ZM6.99996 9.00009C6.73362 9.00611 6.46876 8.95887 6.22093 8.86112C5.9731 8.76337 5.7473 8.6171 5.55678 8.43089C5.36627 8.24467 5.21487 8.02227 5.11148 7.77675C5.0081 7.53122 4.95481 7.26751 4.95474 7.0011C4.95467 6.7347 5.00783 6.47096 5.1111 6.22538C5.21436 5.9798 5.36564 5.75732 5.55607 5.57102C5.74649 5.38471 5.97222 5.23832 6.22 5.14045C6.46778 5.04258 6.73262 4.9952 6.99896 5.00109C7.52152 5.01265 8.01879 5.22832 8.38433 5.60193C8.74986 5.97554 8.95461 6.47741 8.95474 7.0001C8.95487 7.52279 8.75038 8.02476 8.38503 8.39856C8.01968 8.77236 7.52251 8.98827 6.99996 9.00009Z" fill="#333333"/>
</svg>
