<svg width="38" height="38" viewBox="0 0 38 38" fill="none" xmlns="http://www.w3.org/2000/svg">
<circle cx="19" cy="19" r="19" fill="#FEFEFE"/>
<path d="M12.3334 18.9998C12.3334 20.1504 13.2661 21.0832 14.4167 21.0832C15.5673 21.0832 16.5 20.1504 16.5 18.9998C16.5 17.8492 15.5673 16.9165 14.4167 16.9165" stroke="#1C274C" stroke-width="1.25" stroke-linecap="round"/>
<path d="M20.6667 14.4165L16.5 17.3332" stroke="#1C274C" stroke-width="1.25" stroke-linecap="round"/>
<path d="M20.6667 23.5835L16.5 20.6668" stroke="#1C274C" stroke-width="1.25" stroke-linecap="round"/>
<path d="M22.75 26.5002C23.9006 26.5002 24.8333 25.5674 24.8333 24.4168C24.8333 23.2662 23.9006 22.3335 22.75 22.3335C21.5994 22.3335 20.6666 23.2662 20.6666 24.4168" stroke="#1C274C" stroke-width="1.25" stroke-linecap="round"/>
<path d="M24.5542 14.6249C23.9789 15.6213 22.7047 15.9627 21.7083 15.3874C20.7118 14.8121 20.3704 13.538 20.9457 12.5415C21.521 11.5451 22.7952 11.2037 23.7916 11.779" stroke="#1C274C" stroke-width="1.25" stroke-linecap="round"/>
</svg>
