<svg width="18" height="18" viewBox="0 0 18 18" fill="none" xmlns="http://www.w3.org/2000/svg">
<path d="M10.897 7.10244L7.10195 10.8974C6.61445 10.4099 6.31445 9.74244 6.31445 8.99994C6.31445 7.51494 7.51445 6.31494 8.99945 6.31494C9.74195 6.31494 10.4095 6.61494 10.897 7.10244Z" stroke="#9A9A9A" stroke-width="1.5" stroke-linecap="round" stroke-linejoin="round"/>
<path d="M13.3659 4.32736C12.0534 3.33736 10.5534 2.79736 9.00086 2.79736C6.35336 2.79736 3.88586 4.35736 2.16836 7.05736C1.49336 8.11486 1.49336 9.89236 2.16836 10.9499C2.76086 11.8799 3.45086 12.6824 4.20086 13.3274" stroke="#9A9A9A" stroke-width="1.5" stroke-linecap="round" stroke-linejoin="round"/>
<path d="M6.31445 14.6473C7.16945 15.0073 8.07695 15.2023 8.99945 15.2023C11.647 15.2023 14.1145 13.6423 15.832 10.9423C16.507 9.88477 16.507 8.10727 15.832 7.04977C15.5845 6.65977 15.3145 6.29227 15.037 5.94727" stroke="#9A9A9A" stroke-width="1.5" stroke-linecap="round" stroke-linejoin="round"/>
<path d="M11.6326 9.5249C11.4376 10.5824 10.5751 11.4449 9.51758 11.6399" stroke="#9A9A9A" stroke-width="1.5" stroke-linecap="round" stroke-linejoin="round"/>
</svg>
